<svg xmlns="http://www.w3.org/2000/svg" version="1.1" xmlns:xlink="http://www.w3.org/1999/xlink" xmlns:svgjs="http://svgjs.dev/svgjs" width="1000" height="1000" viewBox="0 0 1000 1000"><rect width="1000" height="1000" fill="#ffffff"></rect><g transform="matrix(0.7,0,0,0.7,149.57575757575756,282.1265587044535)"><svg viewBox="0 0 396 247" data-background-color="#ffffff" preserveAspectRatio="xMidYMid meet" height="623" width="1000" xmlns="http://www.w3.org/2000/svg" xmlns:xlink="http://www.w3.org/1999/xlink"><g id="tight-bounds" transform="matrix(1,0,0,1,0.2400000000000091,-0.09999999999999432)"><svg viewBox="0 0 395.52 247.2" height="247.2" width="395.52"><g><svg></svg></g><g><svg viewBox="0 0 395.52 247.2" height="247.2" width="395.52"><g transform="matrix(1,0,0,1,75.54432,110.73800048908296)"><svg viewBox="0 0 244.43135999999998 25.723999021834054" height="25.723999021834054" width="244.43135999999998"><g><svg viewBox="0 0 244.43135999999998 25.723999021834054" height="25.723999021834054" width="244.43135999999998"><g><svg viewBox="0 0 244.43135999999998 25.723999021834054" height="25.723999021834054" width="244.43135999999998"><g><svg viewBox="0 0 244.43135999999998 25.723999021834054" height="25.723999021834054" width="244.43135999999998"><g id="textblocktransform"><svg viewBox="0 0 244.43135999999998 25.723999021834054" height="25.723999021834054" width="244.43135999999998" id="textblock"><g><svg viewBox="0 0 244.43135999999998 25.723999021834054" height="25.723999021834054" width="244.43135999999998"><g transform="matrix(1,0,0,1,0,0)"><svg width="244.43135999999998" viewBox="1 -35.5 343.4700012207031 36.150001525878906" height="25.723999021834054" data-palette-color="#0063db"><path d="M28.8-3.45Q29.4-1.6 30.25-0.65L30.25-0.65Q29.1 0.6 27 0.6L27 0.6Q25.65 0.6 24.75 0.05 23.85-0.5 23.6-1.55L23.6-1.55 21.05-10.55 9-10.55 7-3.35Q6.7-2.05 6.7-1.35L6.7-1.35Q6.7-0.45 7.1 0.05L7.1 0.05Q5.65 0.6 4.1 0.6L4.1 0.6Q2.5 0.6 1.75 0.08 1-0.45 1-1.65L1-1.65Q1-2.9 1.6-4.7L1.6-4.7 11.7-34.65Q13.95-35.5 16.35-35.5L16.35-35.5Q18.95-35.5 19.45-33.6L19.45-33.6 28.8-3.45ZM9.85-13.65L20.15-13.65 14.9-32.05 9.85-13.65ZM49.6-18.6Q53.35-18.05 55.5-15.78 57.65-13.5 57.65-9.7L57.65-9.7Q57.65-4.7 54.02-2.35 50.4 0 43.45 0L43.45 0 38.25 0Q36.8 0 35.92-0.78 35.05-1.55 35.05-2.9L35.05-2.9 35.05-28.2Q35.05-29.55 34.85-31.23 34.65-32.9 34.2-34.15L34.2-34.15Q36.95-35.45 42.5-35.45L42.5-35.45Q49.1-35.45 52.5-33.43 55.9-31.4 55.9-27L55.9-27Q55.9-23.9 54.25-21.68 52.6-19.45 49.6-18.6L49.6-18.6ZM42.45-33.35Q41.05-33.35 40.6-33.3L40.6-33.3 40.6-19.4 43.8-19.4Q46.8-19.35 48.42-21.28 50.05-23.2 50.05-26.6L50.05-26.6Q50.05-29.95 48.27-31.65 46.5-33.35 42.45-33.35L42.45-33.35ZM43.4-2.15Q51.6-2.15 51.6-9.6L51.6-9.6Q51.6-13.95 49.5-15.63 47.4-17.3 43.45-17.3L43.45-17.3 40.6-17.3 40.6-2.15 43.4-2.15ZM67.75 0.65Q66.34 0.65 65.47-0.13 64.59-0.9 64.59-2.25L64.59-2.25 64.55-28.2Q64.55-32 63.74-34.15L63.74-34.15Q64.25-34.6 65.07-34.98 65.89-35.35 66.94-35.35L66.94-35.35Q68.34-35.35 69.25-34.58 70.14-33.8 70.14-32.45L70.14-32.45 70.14-6.55Q70.14-2.65 70.94-0.6L70.94-0.6Q69.55 0.65 67.75 0.65L67.75 0.65ZM91.04 0.65Q84.24 0.65 80.74-3.88 77.24-8.4 77.24-17.4L77.24-17.4Q77.24-26.4 80.74-30.93 84.24-35.45 91.04-35.45L91.04-35.45Q97.84-35.45 101.37-30.93 104.89-26.4 104.89-17.4L104.89-17.4Q104.89-8.4 101.37-3.88 97.84 0.65 91.04 0.65L91.04 0.65ZM91.04-1.45Q94.99-1.45 96.89-5.28 98.79-9.1 98.79-17.4L98.79-17.4Q98.79-25.65 96.89-29.5 94.99-33.35 91.04-33.35L91.04-33.35Q87.14-33.35 85.24-29.5 83.34-25.65 83.34-17.4L83.34-17.4Q83.34-9.15 85.24-5.3 87.14-1.45 91.04-1.45L91.04-1.45ZM115.04 0Q113.59 0 112.72-0.78 111.84-1.55 111.84-2.85L111.84-2.85 111.79-28.2Q111.79-28.5 111.79-29.98 111.79-31.45 111.64-32.75 111.49-34.05 111.19-34.9L111.19-34.9Q114.29-35.3 121.99-35.3L121.99-35.3Q129.39-35.3 133.31-30.88 137.24-26.45 137.24-17.75L137.24-17.75Q137.24 0 122.29 0L122.29 0 115.04 0ZM117.34-2.15L121.99-2.15Q126.69-2.15 128.92-5.68 131.14-9.2 131.14-17.4L131.14-17.4Q131.14-25.55 128.89-29.35 126.64-33.15 121.99-33.15L121.99-33.15 117.34-33.15 117.34-2.15ZM169.29-32.45L169.29-15.3Q169.29-7.35 166.09-3.35 162.89 0.65 156.54 0.65L156.54 0.65Q150.34 0.65 147.24-3.23 144.14-7.1 144.14-15.3L144.14-15.3 144.14-28.2Q144.14-32 143.34-34.15L143.34-34.15Q143.84-34.6 144.66-34.98 145.49-35.35 146.54-35.35L146.54-35.35Q147.89-35.35 148.79-34.58 149.69-33.8 149.69-32.45L149.69-32.45 149.69-15.05Q149.69-7.9 151.34-4.67 152.99-1.45 156.54-1.45L156.54-1.45Q163.84-1.45 163.84-15.05L163.84-15.05 163.84-28.2Q163.84-31.8 163.04-34.15L163.04-34.15Q163.49-34.6 164.31-34.98 165.14-35.35 166.19-35.35L166.19-35.35Q167.54-35.35 168.41-34.58 169.29-33.8 169.29-32.45L169.29-32.45ZM179.24 0.65Q177.99 0.65 176.89-0.1L176.89-0.1Q177.74-2.4 177.74-6.55L177.74-6.55 177.69-28.1Q177.69-32.05 177.39-34.6L177.39-34.6Q177.69-34.9 178.41-35.1 179.14-35.3 179.89-35.3L179.89-35.3Q181.04-35.3 181.34-35L181.34-35Q184.19-31 187.29-26.75L187.29-26.75Q192.99-18.85 196.01-14.5 199.04-10.15 200.49-7.3L200.49-7.3 199.14-30.7Q199.04-32.55 199.64-33.77 200.24-35 201.49-35.2L201.49-35.2Q202.74-35.35 203.84-34.75L203.84-34.75Q203.59-33.75 203.54-32.27 203.49-30.8 203.49-29.65L203.49-29.65 203.49-6.4Q203.49-4.5 203.54-2.9 203.59-1.3 203.74-0.1L203.74-0.1Q203.49 0.2 202.76 0.4 202.04 0.6 201.29 0.6L201.29 0.6Q200.49 0.6 199.99 0.35L199.99 0.35Q193.39-7.4 188.59-14.4 183.79-21.4 180.89-26.6L180.89-26.6 182.04-2.6Q182.14-1.2 181.26-0.28 180.39 0.65 179.24 0.65L179.24 0.65ZM226.98-18.6Q230.73-18.05 232.88-15.78 235.03-13.5 235.03-9.7L235.03-9.7Q235.03-4.7 231.41-2.35 227.78 0 220.83 0L220.83 0 215.63 0Q214.18 0 213.31-0.78 212.43-1.55 212.43-2.9L212.43-2.9 212.43-28.2Q212.43-29.55 212.23-31.23 212.03-32.9 211.58-34.15L211.58-34.15Q214.33-35.45 219.88-35.45L219.88-35.45Q226.48-35.45 229.88-33.43 233.28-31.4 233.28-27L233.28-27Q233.28-23.9 231.63-21.68 229.98-19.45 226.98-18.6L226.98-18.6ZM219.83-33.35Q218.43-33.35 217.98-33.3L217.98-33.3 217.98-19.4 221.18-19.4Q224.18-19.35 225.81-21.28 227.43-23.2 227.43-26.6L227.43-26.6Q227.43-29.95 225.66-31.65 223.88-33.35 219.83-33.35L219.83-33.35ZM220.78-2.15Q228.98-2.15 228.98-9.6L228.98-9.6Q228.98-13.95 226.88-15.63 224.78-17.3 220.83-17.3L220.83-17.3 217.98-17.3 217.98-2.15 220.78-2.15ZM261.33-4.95Q261.83-4.65 262.11-3.9 262.38-3.15 262.38-2.25L262.38-2.25Q262.38-1.3 262.03-0.65 261.68 0 261.03 0L261.03 0 245.13 0Q243.73 0 242.86-0.78 241.98-1.55 241.98-2.9L241.98-2.9 241.93-27.55Q241.93-31.25 241.13-33.35L241.13-33.35Q242.08-34.2 243.11-34.48 244.13-34.75 246.03-34.75L246.03-34.75 260.83-34.75Q261.73-34.75 261.73-33.25L261.73-33.25Q261.73-32.25 261.31-31.23 260.88-30.2 260.23-29.9L260.23-29.9Q253.88-31.85 247.48-32L247.48-32 247.48-19.65 258.88-19.65Q259.08-19.05 259.08-18.2L259.08-18.2Q259.08-17.6 258.88-16.6L258.88-16.6 247.53-16.6 247.53-2.75Q250.78-2.8 254.73-3.48 258.68-4.15 261.33-4.95L261.33-4.95ZM274.78-32.45L274.83-3.05Q278.03-3.1 281.5-3.75 284.98-4.4 287.43-5.25L287.43-5.25Q287.93-4.95 288.2-4.13 288.48-3.3 288.48-2.4L288.48-2.4Q288.48-1.4 288.13-0.7 287.78 0 287.13 0L287.13 0 272.43 0Q271.03 0 270.15-0.78 269.28-1.55 269.28-2.9L269.28-2.9 269.23-28.2Q269.23-32 268.43-34.15L268.43-34.15Q268.93-34.6 269.75-34.98 270.58-35.35 271.63-35.35L271.63-35.35Q273.03-35.35 273.9-34.58 274.78-33.8 274.78-32.45L274.78-32.45ZM299.48-32.45L299.53-3.05Q302.73-3.1 306.2-3.75 309.68-4.4 312.13-5.25L312.13-5.25Q312.63-4.95 312.9-4.13 313.18-3.3 313.18-2.4L313.18-2.4Q313.18-1.4 312.83-0.7 312.48 0 311.83 0L311.83 0 297.13 0Q295.73 0 294.85-0.78 293.98-1.55 293.98-2.9L293.98-2.9 293.93-28.2Q293.93-32 293.13-34.15L293.13-34.15Q293.63-34.6 294.45-34.98 295.28-35.35 296.33-35.35L296.33-35.35Q297.73-35.35 298.6-34.58 299.48-33.8 299.48-32.45L299.48-32.45ZM330.62 0.65Q323.82 0.65 320.32-3.88 316.82-8.4 316.82-17.4L316.82-17.4Q316.82-26.4 320.32-30.93 323.82-35.45 330.62-35.45L330.62-35.45Q337.42-35.45 340.95-30.93 344.47-26.4 344.47-17.4L344.47-17.4Q344.47-8.4 340.95-3.88 337.42 0.65 330.62 0.65L330.62 0.65ZM330.62-1.45Q334.57-1.45 336.47-5.28 338.37-9.1 338.37-17.4L338.37-17.4Q338.37-25.65 336.47-29.5 334.57-33.35 330.62-33.35L330.62-33.35Q326.72-33.35 324.82-29.5 322.92-25.65 322.92-17.4L322.92-17.4Q322.92-9.15 324.82-5.3 326.72-1.45 330.62-1.45L330.62-1.45Z" opacity="1" transform="matrix(1,0,0,1,0,0)" fill="#000000" class="wordmark-text-0" data-fill-palette-color="primary" id="text-0"></path></svg></g></svg></g></svg></g></svg></g></svg></g></svg></g></svg></g><g><path d="M0 123.6c0-68.262 55.338-123.6 123.6-123.6 62.875 0 114.786 46.948 122.587 107.702l-1.17 0c-7.794-60.111-59.183-106.542-121.417-106.542-67.622 0-122.44 54.818-122.44 122.44 0 67.622 54.818 122.44 122.44 122.44 62.234 0 113.623-46.431 121.417-106.542h1.17c-7.801 60.753-59.712 107.702-122.587 107.702-68.262 0-123.6-55.338-123.6-123.6z" fill="#000000" stroke="transparent" data-fill-palette-color="tertiary"></path></g></svg></g><defs></defs></svg><rect width="395.52" height="247.2" fill="none" stroke="none" visibility="hidden"></rect></g></svg></g></svg>