<svg xmlns="http://www.w3.org/2000/svg" xmlns:xlink="http://www.w3.org/1999/xlink" version="1.1" x="0px" y="0px" viewBox="0 0 3873 4841.25" style="enable-background:new 0 0 3873 3873;" xml:space="preserve"><g><g><path d="M3638.5,2730.3H965.7c-33.4,0-60.5-27.1-60.5-60.5s27.1-60.5,60.5-60.5h2672.8c33.4,0,60.5,27.1,60.5,60.5    S3671.9,2730.3,3638.5,2730.3z"/></g><g><path d="M2846.6,2889.2h-76.2c-33.4,0-60.5-27.1-60.5-60.5s27.1-60.5,60.5-60.5h76.2c33.4,0,60.5,27.1,60.5,60.5    S2880,2889.2,2846.6,2889.2z"/></g><g><path d="M3115.7,2889.2h-76.2c-33.4,0-60.5-27.1-60.5-60.5s27.1-60.5,60.5-60.5h76.2c33.4,0,60.5,27.1,60.5,60.5    S3149.2,2889.2,3115.7,2889.2z"/></g><g><path d="M3384.9,2889.2h-76.2c-33.4,0-60.5-27.1-60.5-60.5s27.1-60.5,60.5-60.5h76.2c33.4,0,60.5,27.1,60.5,60.5    S3418.3,2889.2,3384.9,2889.2z"/></g><g><path d="M1993.3,3424.4c-4.5,0-9.2-0.5-13.8-1.6c-32.6-7.6-52.8-40.1-45.2-72.7l87.6-376.4c7.6-32.6,40.1-52.8,72.7-45.2    s52.8,40.1,45.2,72.7l-87.6,376.4C2045.7,3405.6,2020.8,3424.4,1993.3,3424.4z"/></g><g><path d="M2610.9,3424.4c-28.5,0-53.9-20.2-59.4-49.2l-71.5-376.4c-6.2-32.8,15.3-64.5,48.2-70.8c32.8-6.2,64.5,15.3,70.8,48.2    l71.5,376.4c6.2,32.8-15.3,64.5-48.2,70.8C2618.5,3424.1,2614.7,3424.4,2610.9,3424.4z"/></g><g><path d="M2829.4,3424.4H1774.9c-33.4,0-60.5-27.1-60.5-60.5s27.1-60.5,60.5-60.5h1054.5c33.4,0,60.5,27.1,60.5,60.5    C2889.9,3397.3,2862.8,3424.4,2829.4,3424.4z"/></g><g><path d="M3520.2,3048.1H1084c-98.6,0-178.8-80.2-178.8-178.8V1399c0-98.6,80.2-178.8,178.8-178.8h2436.3    c98.6,0,178.8,80.2,178.8,178.8v1470.3C3699,2967.9,3618.8,3048.1,3520.2,3048.1z M1084,1341.3c-31.8,0-57.7,25.9-57.7,57.7    v1470.3c0,31.8,25.9,57.7,57.7,57.7h2436.3c31.8,0,57.7-25.9,57.7-57.7V1399c0-31.8-25.9-57.7-57.7-57.7H1084z"/></g><g><g><path d="M2828.3,2308.6c-15,0-30-5.5-41.8-16.7c-24.2-23.1-25.1-61.4-2-85.6l220.3-231l-220.3-231c-23.1-24.2-22.2-62.5,2-85.6     s62.5-22.2,85.6,2l260.2,272.8c22.3,23.4,22.3,60.2,0,83.5l-260.2,272.8C2860.2,2302.3,2844.3,2308.6,2828.3,2308.6z"/></g><g><path d="M1775.9,2308.6c-16,0-31.9-6.3-43.8-18.7L1471.9,2017c-22.3-23.4-22.3-60.2,0-83.5l260.2-272.8     c23.1-24.2,61.4-25.1,85.6-2s25.1,61.4,2,85.6l-220.3,231l220.3,231c23.1,24.2,22.2,62.5-2,85.6     C1805.9,2303,1790.9,2308.6,1775.9,2308.6z"/></g><g><path d="M2187.3,2367.8c-6.6,0-13.2-1.1-19.8-3.3c-31.6-10.9-48.3-45.4-37.4-77l229.7-663.9c10.9-31.6,45.4-48.3,77-37.4     s48.3,45.4,37.4,77L2244.4,2327C2235.8,2352,2212.3,2367.8,2187.3,2367.8z"/></g></g><g><path d="M880.9,2224.3c-12.1,0-24.5-2.2-36.4-6.7l-213.1-80.7c-22.9-8.7-41.9-25.3-53.5-46.8c-11.7-21.5-15.2-46.5-10-70.4    l39-178.4c-9.3-8.4-18.4-17.1-27.2-25.9l-175,47.1c-8.9,2.4-17.9,3.6-26.8,3.6c-39.3,0-75.9-22.7-92.7-60.2l-93.6-207.8    c-10.1-22.3-11.8-47.5-4.8-71c7-23.4,22.1-43.6,42.7-56.9l151.9-97.4c-0.8-13.3-1.2-26.7-1.3-40l-154.9-89.2    c-43.6-25.1-62.3-77.5-44.5-124.6l80.6-213c8.7-22.9,25.3-41.9,46.8-53.6c21.5-11.7,46.5-15.2,70.4-10l170.9,37.3    c9.9-11.4,20.4-22.6,31.2-33.5l-45-167.1c-13.1-48.6,10.8-98.9,56.6-119.6L800.1,466c22.3-10.1,47.5-11.8,71-4.8    s43.6,22.1,56.9,42.8l91.4,142.4c17.2-1.2,34.5-1.7,51.7-1.6l83.5-145.1c25.1-43.6,77.5-62.3,124.6-44.5l213.1,80.7    c22.9,8.6,41.9,25.2,53.6,46.8c11.7,21.5,15.2,46.5,10,70.4l-35.5,162.8c13.4,11.8,26.6,24.3,39.2,37.3l159.6-42.9    c48.6-13.1,98.9,10.7,119.6,56.6l93.6,207.8c10,22.3,11.7,47.5,4.8,71c-7,23.5-22.2,43.7-42.8,56.9L1750,1295    c-6.8,28.3-33.3,48.3-63.2,46.1c-33.3-2.4-58.4-31.4-56-64.8c2.3-32,19.8-61.4,46.7-78.6l137.6-88.3l-80.2-178.1L1580,973    c-36.5,9.8-75.2-1.3-101.1-28.9c-14.4-15.3-29.7-29.9-45.5-43.3c-28.9-24.6-41.9-62.8-33.8-99.7l34.4-157.8l-182.6-69.2l-81,140.8    c-18.6,32.4-53.5,51.9-91,51.1c-20.2-0.5-40.7,0.2-60.8,1.9c-38,3.3-74.4-14.6-94.9-46.5L835,583.2l-178.1,80.2l43.6,162.1    c9.7,35.9-0.9,74.1-27.4,99.8c-13.6,13.2-26.6,27.1-38.6,41.4c-24.5,29-62.7,42-99.8,33.8l-166-36.2l-69.2,182.6l150.5,86.7    c32.1,18.6,51.7,53.1,51.1,90.2c-0.2,16.8,0.3,34,1.6,51c2.9,37.6-15,73.6-46.6,93.9l-147.6,94.7l80.2,178.1l170.1-45.8    c35.9-9.7,74.3,1,100.2,27.9c11.2,11.7,23.2,23.1,35.6,33.9c28.2,24.5,40.8,62.4,32.8,98.9l-37.8,173.2l182.7,69.2l41-71.2    c16.7-29,53.7-38.9,82.6-22.2c29,16.7,38.9,53.7,22.2,82.6l-49.1,85.2C950.4,2205.6,916.5,2224.3,880.9,2224.3z M1567.1,861.2    C1567.1,861.3,1567.1,861.3,1567.1,861.2C1567.1,861.3,1567.1,861.3,1567.1,861.2z"/></g><g><path d="M965.8,1778.3c-4.9,0-9.9-0.6-14.9-1.9c-135.3-34.1-245.7-126.6-303-253.7c-49.8-110.5-53.6-233.9-10.6-347.2    c43-113.4,127.5-203.2,238-253s233.9-53.6,347.2-10.6c113.4,42.9,203.3,127.5,253.1,238c17.6,39.1,29.6,80.2,35.6,122.3    c4.7,33.1-18.3,63.7-51.3,68.5c-33.1,4.7-63.7-18.3-68.5-51.3c-4.4-30.8-13.2-61-26.1-89.7c-75.4-167.3-272.9-242.2-440.2-166.8    c-81.1,36.5-143.1,102.4-174.6,185.6c-31.5,83.1-28.7,173.6,7.8,254.7c42,93.2,123,161,222.2,186.1c32.4,8.2,52,41.1,43.9,73.5    C1017.5,1760.1,992.8,1778.3,965.8,1778.3z"/></g></g><text x="0" y="3888" fill="#000000" font-size="5px" font-weight="bold" font-family="'Helvetica Neue', Helvetica, Arial-Unicode, Arial, Sans-serif">Created by Graphixs_Art</text><text x="0" y="3893" fill="#000000" font-size="5px" font-weight="bold" font-family="'Helvetica Neue', Helvetica, Arial-Unicode, Arial, Sans-serif">from the Noun Project</text></svg>