<svg xmlns="http://www.w3.org/2000/svg" data-name="Layer 1" viewBox="0 0 100 125" x="0px" y="0px"><polygon points="77.64 69.5 16 69.5 16 24.84 17 23.84 70.68 23.84 70.68 21.84 16.18 21.84 14 24.01 14 71.5 45.82 71.5 45.82 80.03 47.82 80.03 47.82 71.5 79.64 71.5 79.64 31.09 77.64 31.09 77.64 69.5"/><rect x="30.91" y="82.21" width="31.82" height="2"/><rect x="60.83" y="51.13" width="9.55" height="2"/><rect x="60.83" y="55.9" width="9.55" height="2"/><rect x="60.83" y="60.67" width="9.55" height="2"/><path d="M57.05,51.13H45.51V62.67H57.05Zm-2,9.54H47.51V53.13h7.54Z"/><polygon points="73.55 15.79 73.55 17.8 82.58 17.8 62.54 37.81 55.53 30.82 45.8 40.54 47.21 41.95 55.53 33.64 62.54 40.64 84 19.21 84 28.23 86 28.23 86 15.79 73.55 15.79"/><path d="M30.75,29.64v2A5.35,5.35,0,0,1,35,35.92h2A7.36,7.36,0,0,0,30.75,29.64Z"/><path d="M28.75,31.66v-2a7.36,7.36,0,0,0-6.36,7.28,7.28,7.28,0,0,0,1.5,4.43l1.43-1.42a5.31,5.31,0,0,1-.93-3A5.36,5.36,0,0,1,28.75,31.66Z"/><path d="M35,37.92a5.36,5.36,0,0,1-5.26,4.35,5.28,5.28,0,0,1-3-.93l-1.43,1.43A7.35,7.35,0,0,0,37,37.92Z"/><rect x="24.79" y="55.13" width="2" height="7.33"/><rect x="29.57" y="51.83" width="2" height="10.63"/><rect x="34.34" y="48.16" width="2" height="14.3"/><text x="0" y="115" fill="#000000" font-size="5px" font-weight="bold" font-family="'Helvetica Neue', Helvetica, Arial-Unicode, Arial, Sans-serif">Created by andrgar.design</text><text x="0" y="120" fill="#000000" font-size="5px" font-weight="bold" font-family="'Helvetica Neue', Helvetica, Arial-Unicode, Arial, Sans-serif">from the Noun Project</text></svg>