<svg xmlns="http://www.w3.org/2000/svg" xmlns:xlink="http://www.w3.org/1999/xlink" version="1.1" x="0px" y="0px" viewBox="0 0 64 80" style="enable-background:new 0 0 64 64;" xml:space="preserve"><circle cx="32" cy="45" r="1"/><path d="M57,8h-5v2h5c0.6,0,1,0.4,1,1v29h-2V12h-4v2h2v26H10V14h2v-2H8v28H6V11c0-0.6,0.4-1,1-1h5V8H7c-1.7,0-3,1.3-3,3v36  c0,1.7,1.3,3,3,3h19v4h-5c-2.8,0-5,2.2-5,5v3h32v-3c0-2.8-2.2-5-5-5h-5v-4h19c1.7,0,3-1.3,3-3V11C60,9.3,58.7,8,57,8z M43,56  c1.7,0,3,1.3,3,3v1H18v-1c0-1.7,1.3-3,3-3H43z M36,54h-8v-4h8V54z M57,48H7c-0.6,0-1-0.4-1-1v-5h52v5C58,47.6,57.6,48,57,48z"/><path d="M47,2H17c-1.7,0-3,1.3-3,3v30c0,1.7,1.3,3,3,3h30c1.7,0,3-1.3,3-3V5C50,3.3,48.7,2,47,2z M48,5v3h-4V4h3C47.6,4,48,4.4,48,5  z M17,4h25v4H16V5C16,4.4,16.4,4,17,4z M47,36H17c-0.6,0-1-0.4-1-1V10h32v25C48,35.6,47.6,36,47,36z"/><path d="M25,17h2v-2h-2c-1.7,0-3,1.3-3,3v3c0,0.6-0.4,1-1,1h-1v2h1c0.6,0,1,0.4,1,1v3c0,1.7,1.3,3,3,3h2v-2h-2c-0.6,0-1-0.4-1-1  v-3.2c0-0.5-0.2-1-0.6-1.4L23,23l0.4-0.4c0.4-0.4,0.6-0.9,0.6-1.4V18C24,17.4,24.4,17,25,17z"/><path d="M39,17h-2v-2h2c1.7,0,3,1.3,3,3v3c0,0.6,0.4,1,1,1h1v2h-1c-0.6,0-1,0.4-1,1v3c0,1.7-1.3,3-3,3h-2v-2h2c0.6,0,1-0.4,1-1v-3.2  c0-0.5,0.2-1,0.6-1.4L41,23l-0.4-0.4c-0.4-0.4-0.6-0.9-0.6-1.4V18C40,17.4,39.6,17,39,17z"/><circle cx="27" cy="23" r="1"/><circle cx="32" cy="23" r="1"/><circle cx="37" cy="23" r="1"/><text x="0" y="79" fill="#000000" font-size="5px" font-weight="bold" font-family="'Helvetica Neue', Helvetica, Arial-Unicode, Arial, Sans-serif">Created by I Putu Kharismayadi</text><text x="0" y="84" fill="#000000" font-size="5px" font-weight="bold" font-family="'Helvetica Neue', Helvetica, Arial-Unicode, Arial, Sans-serif">from the Noun Project</text></svg>